<svg width="1200pt" height="1200pt" version="1.1" viewBox="0 0 1200 1200" xmlns="http://www.w3.org/2000/svg">
 <path d="m1102.4 200.1c-2.4258-0.25-4.875-0.10156-7.3242 0.39844l-1e3 200c-8.9492 1.8008-16.199 8.2734-18.949 16.977-2.7266 8.6992-0.55078 18.176 5.75 24.75l119.4 125.1c-1.1758 3.6016-1.6484 7.5-1.0234 11.477l50 325c1.875 12.199 12.352 21.199 24.699 21.199h267.77l64.148 67.227c5.3008 5.5742 12.898 8.375 20.574 7.625 7.6484-0.75 14.523-4.9766 18.648-11.477l475-750c5.3516-8.4492 5.125-19.273-0.55078-27.523-4.2266-6.1992-10.926-10.051-18.148-10.75zm-139.38 77.773-592.12 394.77-221.48-232.07zm61.875 18.852-403.95 637.9-215-225.25zm-766.65 330.27 236.73 248h-198.6z" fill-rule="evenodd" data-index="0"></path>
</svg>